<svg xmlns:xlink="http://www.w3.org/1999/xlink" width="164" xmlns="http://www.w3.org/2000/svg" height="287" id="screenshot-e4dd8b8a-f4dc-8065-8002-c2b97c98f5db" viewBox="0 -1 164 287" style="-webkit-print-color-adjust: exact;" fill="none" version="1.1"><g id="shape-e4dd8b8a-f4dc-8065-8002-c2b97c98f5db" rx="0" ry="0"><g id="shape-e4dd8b8a-f4dc-8065-8002-c2b9059b099c" rx="0" ry="0"><g id="shape-e4dd8b8a-f4dc-8065-8002-c2b872e1042f" rx="0" ry="0"><g id="shape-e4dd8b8a-f4dc-8065-8002-c2b3d6a29eb5"><g class="fills" id="fills-e4dd8b8a-f4dc-8065-8002-c2b3d6a29eb5"><ellipse rx="82" ry="77.5" cx="82" cy="208.5" transform="matrix(1.000000, 0.000000, 0.000000, 1.000000, 0.000000, 0.000000)" style="fill: rgb(13, 47, 212); fill-opacity: 1;"/></g></g><g id="shape-e4dd8b8a-f4dc-8065-8002-c2b77938471d"><g class="fills" id="fills-e4dd8b8a-f4dc-8065-8002-c2b77938471d"><path rx="0" ry="0" d="M11.601,208.043C24.507,183.969,-2.501,207.313,7.119,178.901C26.816,120.724,78.336,14.392,78.336,14.392C78.336,14.392,80.328,10.849,80.826,6.800C81.684,-0.172,89.534,-5.509,99.343,10.349C114.471,34.806,157.838,155.053,162.881,204.986C167.923,254.919,11.601,208.043,11.601,208.043Z" style="fill: rgb(13, 47, 212); fill-opacity: 1;"/></g><g id="strokes-e4dd8b8a-f4dc-8065-8002-c2b77938471d" class="strokes"><g class="stroke-shape"><path rx="0" ry="0" d="M11.601,208.043C24.507,183.969,-2.501,207.313,7.119,178.901C26.816,120.724,78.336,14.392,78.336,14.392C78.336,14.392,80.328,10.849,80.826,6.800C81.684,-0.172,89.534,-5.509,99.343,10.349C114.471,34.806,157.838,155.053,162.881,204.986C167.923,254.919,11.601,208.043,11.601,208.043Z" style="fill: none; stroke-width: 2; stroke: rgb(13, 47, 212); stroke-opacity: 1;"/></g></g></g></g><g id="shape-e4dd8b8a-f4dc-8065-8002-c2b878abf152"><defs><filter id="filter_rumext-id-6" x="-0.13793103448275862" y="-0.3333333333333333" width="1.2758620689655173" height="1.6666666666666667" filterUnits="objectBoundingBox" color-interpolation-filters="sRGB"><feFlood flood-opacity="0" result="BackgroundImageFix"/><feBlend mode="normal" in="SourceGraphic" in2="BackgroundImageFix" result="shape"/><feGaussianBlur stdDeviation="4" result="filter_e4dd8b8a-f4dc-8065-8002-c2b8a221500f"/></filter><filter id="filter_blur_rumext-id-6" x="-0.13793103448275862" y="-0.3333333333333333" width="1.2758620689655173" height="1.6666666666666667" filterUnits="objectBoundingBox" color-interpolation-filters="sRGB"><feFlood flood-opacity="0" result="BackgroundImageFix"/><feBlend mode="normal" in="SourceGraphic" in2="BackgroundImageFix" result="shape"/><feGaussianBlur stdDeviation="4" result="filter_e4dd8b8a-f4dc-8065-8002-c2b8a221500f"/></filter></defs><g class="fills" id="fills-e4dd8b8a-f4dc-8065-8002-c2b878abf152"><ellipse rx="29" ry="12" cx="55.354344964951224" cy="240.1316230349202" transform="matrix(0.906308, 0.422618, -0.422618, 0.906308, 106.670280, -0.895294)" filter="url(#filter_rumext-id-6)" style="fill: rgb(255, 255, 255); fill-opacity: 1;"/></g></g></g></g></svg>